<?xml version="1.0" encoding="UTF-8"?>
<!DOCTYPE svg PUBLIC "-//W3C//DTD SVG 1.1//EN" "http://www.w3.org/Graphics/SVG/1.1/DTD/svg11.dtd">
<svg xmlns="http://www.w3.org/2000/svg" version="1.1" width="254px" height="60px" style="shape-rendering:geometricPrecision; text-rendering:geometricPrecision; image-rendering:optimizeQuality; fill-rule:evenodd; clip-rule:evenodd" xmlns:xlink="http://www.w3.org/1999/xlink">
<g><path style="opacity:0.905" fill="#4285f5" d="M 22.5,-0.5 C 23.8333,-0.5 25.1667,-0.5 26.5,-0.5C 36.9087,1.06264 43.9087,6.89597 47.5,17C 42.798,17.8283 38.1313,17.6616 33.5,16.5C 30.3309,11.8821 25.9976,10.3821 20.5,12C 16.4794,13.8679 14.3128,17.0346 14,21.5C 13.2377,33.6986 18.7377,38.1986 30.5,35C 31.6872,33.9805 32.6872,32.8139 33.5,31.5C 49.9005,27.3364 51.9005,31.1697 39.5,43C 28.8246,49.3709 18.4913,48.8709 8.5,41.5C 0.153772,31.1658 -0.679561,20.1658 6,8.5C 10.5164,3.49527 16.0164,0.495272 22.5,-0.5 Z"/></g>
<g><path style="opacity:0.899" fill="#fbbd04" d="M 126.5,-0.5 C 128.833,-0.5 131.167,-0.5 133.5,-0.5C 149.063,3.93126 155.563,14.2646 153,30.5C 145.487,47.2295 133.32,51.7295 116.5,44C 101.622,29.8861 101.956,16.2194 117.5,3C 120.571,1.70435 123.571,0.53768 126.5,-0.5 Z M 125.5,11.5 C 138.962,11.0579 143.795,17.3912 140,30.5C 135.313,36.9353 129.479,38.1019 122.5,34C 118.314,28.6978 117.481,22.8645 120,16.5C 121.73,14.5981 123.563,12.9314 125.5,11.5 Z"/></g>
<g><path style="opacity:0.855" fill="#ea4335" d="M 56.5,0.5 C 60.5,0.5 64.5,0.5 68.5,0.5C 68.5,6.5 68.5,12.5 68.5,18.5C 73.8333,18.5 79.1667,18.5 84.5,18.5C 84.5,12.5 84.5,6.5 84.5,0.5C 88.8333,0.5 93.1667,0.5 97.5,0.5C 97.5,16.1667 97.5,31.8333 97.5,47.5C 93.1667,47.5 88.8333,47.5 84.5,47.5C 84.5,41.1667 84.5,34.8333 84.5,28.5C 79.1667,28.5 73.8333,28.5 68.5,28.5C 68.5,34.8333 68.5,41.1667 68.5,47.5C 64.5,47.5 60.5,47.5 56.5,47.5C 56.5,31.8333 56.5,16.1667 56.5,0.5 Z"/></g>
<g><path style="opacity:0.866" fill="#4285f4" d="M 162.5,0.5 C 171.915,0.0828153 181.248,0.582815 190.5,2C 199.132,7.22968 201.299,14.3963 197,23.5C 194.933,26.07 192.433,28.07 189.5,29.5C 193.085,35.0021 196.419,40.6688 199.5,46.5C 194.833,47.8333 190.167,47.8333 185.5,46.5C 182.573,40.9729 179.407,35.6395 176,30.5C 175.5,30.6667 175,30.8333 174.5,31C 175.637,36.082 175.804,41.2487 175,46.5C 170.934,47.4637 166.767,47.797 162.5,47.5C 162.5,31.8333 162.5,16.1667 162.5,0.5 Z M 175.5,10.5 C 178.8,11.093 182.134,11.7597 185.5,12.5C 186.833,14.8333 186.833,17.1667 185.5,19.5C 182.296,20.2036 179.129,20.8702 176,21.5C 175.5,21 175,20.5 174.5,20C 175.304,16.7248 175.637,13.5581 175.5,10.5 Z"/></g>
<g><path style="opacity:1" fill="#f84738" d="M 57.5,1.5 C 60.8333,1.5 64.1667,1.5 67.5,1.5C 67.6661,7.17645 67.4994,12.8431 67,18.5C 66.5006,13.1771 66.334,7.84372 66.5,2.5C 63.8333,2.5 61.1667,2.5 58.5,2.5C 58.6666,17.1705 58.4999,31.8371 58,46.5C 57.5001,31.5037 57.3334,16.5037 57.5,1.5 Z"/></g>
<g><path style="opacity:1" fill="#ef4436" d="M 86.5,2.5 C 89.2869,1.52333 92.2869,1.19 95.5,1.5C 95.5,16.5 95.5,31.5 95.5,46.5C 92.4281,46.8174 89.4281,46.4841 86.5,45.5C 88.8857,45.3241 91.5524,45.3241 94.5,45.5C 94.5,31.1667 94.5,16.8333 94.5,2.5C 91.8333,2.5 89.1667,2.5 86.5,2.5 Z"/></g>
<g><path style="opacity:1" fill="#4489fc" d="M 163.5,1.5 C 170.508,1.33371 177.508,1.50038 184.5,2C 177.842,2.49958 171.175,2.66625 164.5,2.5C 164.5,16.8333 164.5,31.1667 164.5,45.5C 167.167,45.5 169.833,45.5 172.5,45.5C 172.334,40.1563 172.501,34.8229 173,29.5C 173.499,35.1569 173.666,40.8236 173.5,46.5C 170.167,46.5 166.833,46.5 163.5,46.5C 163.5,31.5 163.5,16.5 163.5,1.5 Z"/></g>
<g><path style="opacity:0.953" fill="#34a853" d="M 208.5,0.5 C 216.507,0.333622 224.507,0.500289 232.5,1C 249.037,6.57483 254.537,17.7415 249,34.5C 245.14,41.3503 239.307,45.517 231.5,47C 223.841,47.4997 216.174,47.6664 208.5,47.5C 208.5,31.8333 208.5,16.1667 208.5,0.5 Z M 221.5,11.5 C 235.634,10.47 240.801,16.8034 237,30.5C 235.52,33.6626 233.02,35.496 229.5,36C 226.854,36.4974 224.187,36.6641 221.5,36.5C 221.5,28.1667 221.5,19.8333 221.5,11.5 Z"/></g>
<g><path style="opacity:1" fill="#35ac54" d="M 210.5,1.5 C 216.842,1.33379 223.175,1.50046 229.5,2C 223.509,2.49949 217.509,2.66615 211.5,2.5C 211.5,16.5 211.5,30.5 211.5,44.5C 219.174,44.3336 226.841,44.5003 234.5,45C 226.553,46.2748 218.553,46.7748 210.5,46.5C 210.5,31.5 210.5,16.5 210.5,1.5 Z"/></g>
<g><path style="opacity:1" fill="#36af56" d="M 247.5,14.5 C 248.268,15.2625 248.768,16.2625 249,17.5C 249.667,21.5 249.667,25.5 249,29.5C 248.589,24.4805 248.089,19.4805 247.5,14.5 Z"/></g>
<g><path style="opacity:1" fill="#468eff" d="M 34.5,32.5 C 38.0187,31.1923 41.6853,31.1923 45.5,32.5C 42.1137,32.6229 38.447,32.6229 34.5,32.5 Z"/></g>
<g><path style="opacity:0.372" fill="#000000" d="M 130.5,59.5 C 129.833,59.5 129.167,59.5 128.5,59.5C 129.167,46.1667 129.833,46.1667 130.5,59.5 Z"/></g>
<g><path style="opacity:0.405" fill="#000000" d="M 167.5,59.5 C 165.5,59.5 163.5,59.5 161.5,59.5C 161.18,56.1016 161.513,52.7683 162.5,49.5C 163.251,50.376 163.751,51.376 164,52.5C 165.938,51.1398 167.604,51.4732 169,53.5C 169.748,55.8401 169.248,57.8401 167.5,59.5 Z M 164.5,53.5 C 167.861,54.2032 168.194,55.5365 165.5,57.5C 163.358,56.5629 163.024,55.2296 164.5,53.5 Z"/></g>
<g><path style="opacity:0.4" fill="#000000" d="M 12.5,59.5 C 11.1667,59.5 9.83333,59.5 8.5,59.5C 8.0411,57.6442 7.70776,55.8108 7.5,54C 9.27336,50.7786 11.2734,50.7786 13.5,54C 12.8333,54.3333 12.1667,54.6667 11.5,55C 13.5477,56.2259 13.881,57.7259 12.5,59.5 Z"/></g>
<g><path style="opacity:0.407" fill="#000000" d="M 50.5,59.5 C 49.8333,59.5 49.1667,59.5 48.5,59.5C 48.2761,57.2133 47.6094,55.0466 46.5,53C 46.8333,52.5 47.1667,52 47.5,51.5C 48.8064,52.9122 49.6397,54.5789 50,56.5C 50.4017,55.1279 50.9017,53.7946 51.5,52.5C 52.1667,51.1667 52.8333,51.1667 53.5,52.5C 52.6876,54.9446 51.6876,57.2779 50.5,59.5 Z"/></g>
<g><path style="opacity:0.394" fill="#000000" d="M 94.5,59.5 C 92.5,59.5 90.5,59.5 88.5,59.5C 85.5248,53.4942 87.5248,50.8275 94.5,51.5C 94.5,54.1667 94.5,56.8333 94.5,59.5 Z M 89.5,53.5 C 92.8606,54.2032 93.1939,55.5365 90.5,57.5C 88.3576,56.5629 88.0243,55.2296 89.5,53.5 Z"/></g>
<g><path style="opacity:0.413" fill="#000000" d="M 208.5,59.5 C 206.5,59.5 204.5,59.5 202.5,59.5C 199.833,53.8442 201.833,51.1775 208.5,51.5C 208.5,54.1667 208.5,56.8333 208.5,59.5 Z M 203.5,53.5 C 205.912,53.6941 206.912,55.0274 206.5,57.5C 205.5,57.5 204.5,57.5 203.5,57.5C 203.5,56.1667 203.5,54.8333 203.5,53.5 Z"/></g>
<g><path style="opacity:0.266" fill="#000000" d="M 245.5,59.5 C 244.5,59.5 243.5,59.5 242.5,59.5C 242.5,56.8333 242.5,54.1667 242.5,51.5C 244.288,51.2148 245.955,51.5481 247.5,52.5C 245.827,54.5225 245.16,56.8559 245.5,59.5 Z"/></g>
</svg>
