<?xml version="1.0" encoding="UTF-8"?>
<!DOCTYPE svg PUBLIC "-//W3C//DTD SVG 1.1//EN" "http://www.w3.org/Graphics/SVG/1.1/DTD/svg11.dtd">
<svg xmlns="http://www.w3.org/2000/svg" version="1.1" width="1600px" height="378px" style="shape-rendering:geometricPrecision; text-rendering:geometricPrecision; image-rendering:optimizeQuality; fill-rule:evenodd; clip-rule:evenodd" xmlns:xlink="http://www.w3.org/1999/xlink">
<g><path style="opacity:0.966" fill="#4285f4" d="M 137.5,12.5 C 180.289,8.04749 218.289,19.2142 251.5,46C 268.672,63.1587 281.172,83.3253 289,106.5C 289.495,108.473 289.662,110.473 289.5,112.5C 263.825,112.833 238.158,112.5 212.5,111.5C 195.192,81.5466 169.525,70.7133 135.5,79C 115.639,85.5269 101.472,98.3602 93,117.5C 83.4448,142.381 83.1114,167.381 92,192.5C 110.554,230.848 140.387,243.681 181.5,231C 195.638,224.696 205.971,214.529 212.5,200.5C 225.333,200.167 238.167,199.833 251,199.5C 264.317,199.341 277.484,199.841 290.5,201C 272.66,258.164 233.993,290.83 174.5,299C 125.833,304.336 84.3332,289.836 50,255.5C 18.8451,217.216 7.84508,173.55 17,124.5C 32.0275,59.9681 72.1942,22.6348 137.5,12.5 Z"/></g>
<g><path style="opacity:0.969" fill="#fabc04" d="M 777.5,12.5 C 840.222,5.12588 889.389,27.1259 925,78.5C 951.152,127.939 952.152,177.939 928,228.5C 892.883,283.244 842.716,306.744 777.5,299C 720.626,288.459 682.46,255.959 663,201.5C 646.922,143.646 659.422,93.1458 700.5,50C 722.772,30.5307 748.439,18.0307 777.5,12.5 Z M 799.5,75.5 C 835.887,75.4369 859.387,92.7702 870,127.5C 876.737,153.866 874.071,179.2 862,203.5C 850.86,221.623 834.694,232.123 813.5,235C 769.665,239.809 742.165,220.975 731,178.5C 724.739,149.375 730.072,122.708 747,98.5C 761.197,83.1613 778.697,75.4946 799.5,75.5 Z"/></g>
<g><path style="opacity:0.959" fill="#e94334" d="M 353.5,15.5 C 376.833,15.5 400.167,15.5 423.5,15.5C 423.5,52.1667 423.5,88.8333 423.5,125.5C 458.168,125.667 492.835,125.5 527.5,125C 526.337,88.9047 526.171,52.738 527,16.5C 550.425,15.5058 573.925,15.1725 597.5,15.5C 597.5,109.5 597.5,203.5 597.5,297.5C 573.833,297.5 550.167,297.5 526.5,297.5C 526.17,259.261 526.504,221.094 527.5,183C 492.835,182.5 458.168,182.333 423.5,182.5C 423.5,220.833 423.5,259.167 423.5,297.5C 399.925,297.827 376.425,297.494 353,296.5C 352.169,202.763 352.336,109.097 353.5,15.5 Z"/></g>
<g><path style="opacity:0.967" fill="#4285f4" d="M 1004.5,15.5 C 1050.86,15.0409 1097.19,15.5409 1143.5,17C 1193.12,25.4481 1219.79,54.6148 1223.5,104.5C 1223.03,136.961 1209.03,161.461 1181.5,178C 1175.49,181.391 1169.15,183.891 1162.5,185.5C 1163.69,188.889 1165.19,192.222 1167,195.5C 1187.31,229.141 1206.81,263.141 1225.5,297.5C 1199.16,297.667 1172.83,297.5 1146.5,297C 1126.81,262.104 1107.81,226.937 1089.5,191.5C 1084.5,191.5 1079.5,191.5 1074.5,191.5C 1074.5,226.833 1074.5,262.167 1074.5,297.5C 1051.17,297.5 1027.83,297.5 1004.5,297.5C 1004.5,203.5 1004.5,109.5 1004.5,15.5 Z M 1074.5,74.5 C 1088.5,74.3334 1102.5,74.5001 1116.5,75C 1139.21,74.3779 1150.88,85.3779 1151.5,108C 1151.15,115.551 1149.32,122.718 1146,129.5C 1141.13,136.018 1134.63,139.518 1126.5,140C 1109.17,140.5 1091.84,140.667 1074.5,140.5C 1074.5,118.5 1074.5,96.5 1074.5,74.5 Z"/></g>
<g><path style="opacity:0.965" fill="#34a852" d="M 1287.5,15.5 C 1328.83,15.3333 1370.17,15.5 1411.5,16C 1453.41,19.534 1487.58,37.3673 1514,69.5C 1532.79,95.3642 1541.62,124.364 1540.5,156.5C 1541.56,208.893 1520.23,249.059 1476.5,277C 1456.93,288.143 1435.93,294.81 1413.5,297C 1371.5,297.5 1329.5,297.667 1287.5,297.5C 1287.5,203.5 1287.5,109.5 1287.5,15.5 Z M 1358.5,76.5 C 1376.2,76.1192 1393.87,76.6192 1411.5,78C 1442.96,85.7965 1461.8,105.63 1468,137.5C 1471.15,156.613 1469.48,175.28 1463,193.5C 1453.4,215.433 1436.9,228.933 1413.5,234C 1395.23,236.054 1376.9,236.887 1358.5,236.5C 1358.5,183.167 1358.5,129.833 1358.5,76.5 Z"/></g>
<g><path style="opacity:0.794" fill="#000000" d="M 798.5,315.5 C 802.148,316.5 803.314,318.834 802,322.5C 798.456,325.32 795.956,324.486 794.5,320C 795.117,317.773 796.451,316.273 798.5,315.5 Z"/></g>
<g><path style="opacity:0.829" fill="#000000" d="M 998.5,316.5 C 1000.5,316.5 1002.5,316.5 1004.5,316.5C 1004.33,323.508 1004.5,330.508 1005,337.5C 1011.53,330.502 1019.36,328.668 1028.5,332C 1037.97,338.39 1041.13,347.223 1038,358.5C 1032.63,370.073 1023.8,373.906 1011.5,370C 1009.04,368.542 1006.87,366.709 1005,364.5C 1004.5,366.473 1004.34,368.473 1004.5,370.5C 1002.5,370.5 1000.5,370.5 998.5,370.5C 998.5,352.5 998.5,334.5 998.5,316.5 Z M 1014.5,335.5 C 1026.09,334.253 1032.42,339.42 1033.5,351C 1030.48,365.175 1022.48,369.175 1009.5,363C 1001.76,352.018 1003.42,342.851 1014.5,335.5 Z"/></g>
<g><path style="opacity:0.818" fill="#000000" d="M 60.5,330.5 C 68.2261,328.992 74.7261,330.992 80,336.5C 80.977,338.74 81.477,341.073 81.5,343.5C 79.5,343.5 77.5,343.5 75.5,343.5C 75.0339,338.036 72.0339,335.369 66.5,335.5C 61.9542,335.097 59.2875,337.097 58.5,341.5C 58.8757,343.383 59.8757,344.883 61.5,346C 65.3634,347.732 69.3634,349.066 73.5,350C 80.8287,352.33 83.3287,357.163 81,364.5C 77.9989,369.566 73.4989,371.899 67.5,371.5C 58.7183,371.803 53.385,367.803 51.5,359.5C 53.604,359.201 55.604,359.534 57.5,360.5C 61.5512,366.347 66.8846,367.847 73.5,365C 77.0641,361.855 77.0641,358.855 73.5,356C 68.5597,354.181 63.5597,352.514 58.5,351C 52.6104,347.22 51.1104,342.053 54,335.5C 55.9651,333.45 58.1318,331.783 60.5,330.5 Z"/></g>
<g><path style="opacity:0.825" fill="#000000" d="M 310.5,377.5 C 308.5,377.5 306.5,377.5 304.5,377.5C 305.358,374.95 306.358,372.45 307.5,370C 301.465,357.1 296.132,343.933 291.5,330.5C 293.604,330.201 295.604,330.534 297.5,331.5C 301.641,341.924 305.974,352.258 310.5,362.5C 314.762,352.216 318.929,341.883 323,331.5C 325.064,330.409 327.231,330.242 329.5,331C 322.87,346.391 316.537,361.891 310.5,377.5 Z"/></g>
<g><path style="opacity:0.835" fill="#000000" d="M 552.5,330.5 C 560.461,329.046 567.294,331.046 573,336.5C 573.495,334.527 573.662,332.527 573.5,330.5C 575.5,330.5 577.5,330.5 579.5,330.5C 579.5,343.833 579.5,357.167 579.5,370.5C 577.5,370.5 575.5,370.5 573.5,370.5C 573.662,368.473 573.495,366.473 573,364.5C 569.611,369.195 564.944,371.528 559,371.5C 543.943,369.419 537.61,360.752 540,345.5C 541.491,338.183 545.658,333.183 552.5,330.5 Z M 555.5,335.5 C 572.245,336.441 577.411,344.774 571,360.5C 565.421,366.791 558.921,367.958 551.5,364C 545.518,358.213 544.018,351.379 547,343.5C 549.074,339.923 551.907,337.256 555.5,335.5 Z"/></g>
<g><path style="opacity:0.818" fill="#000000" d="M 795.5,330.5 C 797.5,330.5 799.5,330.5 801.5,330.5C 801.5,343.833 801.5,357.167 801.5,370.5C 799.5,370.5 797.5,370.5 795.5,370.5C 795.5,357.167 795.5,343.833 795.5,330.5 Z"/></g>
<g><path style="opacity:0.835" fill="#000000" d="M 1253.5,330.5 C 1261.46,329.046 1268.29,331.046 1274,336.5C 1274.5,334.527 1274.66,332.527 1274.5,330.5C 1276.5,330.5 1278.5,330.5 1280.5,330.5C 1280.5,343.833 1280.5,357.167 1280.5,370.5C 1278.5,370.5 1276.5,370.5 1274.5,370.5C 1274.66,368.473 1274.5,366.473 1274,364.5C 1270.61,369.195 1265.94,371.528 1260,371.5C 1244.94,369.419 1238.61,360.752 1241,345.5C 1242.49,338.183 1246.66,333.183 1253.5,330.5 Z M 1256.5,335.5 C 1273.24,336.441 1278.41,344.774 1272,360.5C 1266.42,366.791 1259.92,367.958 1252.5,364C 1246.52,358.213 1245.02,351.379 1248,343.5C 1250.07,339.923 1252.91,337.256 1256.5,335.5 Z"/></g>
<g><path style="opacity:0.807" fill="#000000" d="M 1497.5,330.5 C 1499.5,330.5 1501.5,330.5 1503.5,330.5C 1503.34,332.199 1503.51,333.866 1504,335.5C 1507.6,331.452 1512.1,329.785 1517.5,330.5C 1517.5,332.5 1517.5,334.5 1517.5,336.5C 1512.26,335.538 1508.09,337.205 1505,341.5C 1503.61,351.1 1503.11,360.767 1503.5,370.5C 1501.5,370.5 1499.5,370.5 1497.5,370.5C 1497.5,357.167 1497.5,343.833 1497.5,330.5 Z"/></g>
</svg>
